<mxfile host="app.diagrams.net" modified="2024-04-21T22:47:00.288Z" agent="Mozilla/5.0 (Windows NT 10.0; Win64; x64) AppleWebKit/537.36 (KHTML, like Gecko) Chrome/123.0.0.0 Safari/537.36 Edg/123.0.0.0" version="24.2.1" etag="1b4b_gRTWc7sRAwtxb6x" type="github">
  <diagram name="Page-1" id="pr-zO0K_u2BjnXjnq8vn">
    <mxGraphModel>
      <root>
        <mxCell id="0" />
        <mxCell id="1" parent="0" />
      </root>
    </mxGraphModel>
  </diagram>
</mxfile>
